<svg width="44" height="53" viewBox="0 0 60 53" fill="none" xmlns="http://www.w3.org/2000/svg">
<path d="M19.1154 3C19.1154 1.40687 20.4069 0.115386 22 0.115386C23.5931 0.115386 24.8846 1.40687 24.8846 3L19.1154 3ZM24.0397 52.0397C22.9132 53.1662 21.0868 53.1662 19.9603 52.0397L1.6027 33.6821C0.476191 32.5556 0.476191 30.7292 1.6027 29.6027C2.72921 28.4762 4.55565 28.4762 5.68216 29.6027L22 45.9205L38.3178 29.6027C39.4443 28.4762 41.2708 28.4762 42.3973 29.6027C43.5238 30.7292 43.5238 32.5556 42.3973 33.6821L24.0397 52.0397ZM24.8846 3L24.8846 50H19.1154L19.1154 3L24.8846 3Z" fill="black"/>
</svg>
