<svg viewBox="0 0 750 750" fill="none" xmlns="http://www.w3.org/2000/svg">
<rect width="750" height="750" rx="143" fill="#EEEEEE"/>
<path fill-rule="evenodd" clip-rule="evenodd" d="M143 0C64.0233 0 0 64.0233 0 143V607C0 685.977 64.0233 750 143 750H607C685.977 750 750 685.977 750 607V143C750 64.0233 685.977 0 607 0H143ZM375 175C320.673 175 313.873 175.218 292.545 176.2H292.527C271.255 177.182 256.709 180.564 243.982 185.491C230.645 190.517 218.564 198.391 208.582 208.564C198.402 218.551 190.522 230.638 185.491 243.982C180.564 256.709 177.164 271.255 176.2 292.564C175.236 313.873 175 320.673 175 375C175 429.309 175.218 436.109 176.2 457.473C177.182 478.745 180.564 493.291 185.491 506.018C190.515 519.362 198.389 531.449 208.564 541.436C218.56 551.605 230.653 559.472 244 564.491C256.727 569.436 271.273 572.836 292.545 573.8C313.873 574.764 320.673 575 375 575C429.327 575 436.127 574.782 457.473 573.8C478.745 572.818 493.291 569.436 506.018 564.491C519.345 559.473 531.436 551.618 541.436 541.436C551.605 531.44 559.473 519.347 564.491 506C569.436 493.273 572.836 478.727 573.8 457.455C574.764 436.127 575 429.327 575 375C575 320.691 574.782 313.891 573.8 292.527C572.818 271.255 569.436 256.709 564.491 243.982C559.473 230.636 551.618 218.564 541.436 208.582C531.436 198.4 519.345 190.527 506.018 185.491C493.291 180.564 478.745 177.164 457.436 176.2C436.127 175.236 429.327 175 375 175ZM375 211.036C428.4 211.036 434.727 211.236 455.818 212.2C475.327 213.091 485.909 216.345 492.964 219.091C501.649 222.295 509.508 227.401 515.964 234.036C522.964 241.036 527.273 247.709 530.909 257.036C533.655 264.091 536.909 274.673 537.8 294.182C538.764 315.273 538.964 321.6 538.964 375C538.964 428.4 538.764 434.727 537.8 455.818C536.909 475.327 533.655 485.909 530.909 492.964C527.709 501.636 522.6 509.509 515.964 515.964C508.964 522.964 502.291 527.273 492.964 530.909C485.909 533.655 475.327 536.909 455.818 537.8C434.727 538.764 428.418 538.964 375 538.964C321.582 538.964 315.273 538.764 294.182 537.8C274.673 536.909 264.091 533.655 257.036 530.909C248.364 527.709 240.491 522.6 234.036 515.964C227.4 509.509 222.291 501.636 219.091 492.964C216.345 485.909 213.091 475.327 212.2 455.818C211.236 434.727 211.036 428.4 211.036 375C211.036 321.6 211.236 315.273 212.2 294.182C213.091 274.673 216.345 264.091 219.091 257.036C222.294 248.351 227.401 240.492 234.036 234.036C241.036 227.036 247.709 222.727 257.036 219.091C264.091 216.345 274.673 213.091 294.182 212.2C315.273 211.236 321.6 211.036 375 211.036ZM394.399 438.922C379.607 443.395 363.721 442.593 349.455 436.655C340.342 432.876 332.181 427.124 325.559 419.813C318.936 412.502 314.017 403.813 311.155 394.373C308.294 384.933 307.561 374.975 309.009 365.217C310.458 355.46 314.052 346.145 319.533 337.943C325.014 329.741 332.245 322.856 340.706 317.784C349.166 312.712 358.647 309.579 368.464 308.611C378.281 307.643 388.19 308.863 397.479 312.184C406.767 315.506 415.204 320.845 422.182 327.818C433.127 338.727 439.946 353.097 441.474 368.475C443.001 383.852 439.142 399.283 430.557 412.132C421.971 424.98 409.191 434.45 394.399 438.922ZM335.66 280.025C323.188 285.191 311.855 292.763 302.309 302.309C283.03 321.588 272.2 347.736 272.2 375C272.2 402.264 283.03 428.412 302.309 447.691C321.588 466.97 347.736 477.8 375 477.8C402.264 477.8 428.412 466.97 447.691 447.691C457.237 438.145 464.809 426.812 469.975 414.34C475.141 401.868 477.8 388.5 477.8 375C477.8 361.5 475.141 348.132 469.975 335.66C464.809 323.188 457.237 311.855 447.691 302.309C438.145 292.763 426.812 285.191 414.34 280.025C401.868 274.859 388.5 272.2 375 272.2C361.5 272.2 348.132 274.859 335.66 280.025ZM506.169 279.618C504.859 282.594 502.966 285.278 500.6 287.509C495.999 291.849 489.889 294.225 483.565 294.133C477.241 294.041 471.202 291.487 466.73 287.015C462.258 282.543 459.705 276.504 459.613 270.181C459.521 263.857 461.897 257.746 466.236 253.145C468.468 250.78 471.151 248.886 474.128 247.576C477.104 246.266 480.313 245.567 483.565 245.52C486.816 245.472 490.045 246.078 493.058 247.3C496.071 248.523 498.809 250.338 501.108 252.637C503.408 254.937 505.223 257.674 506.445 260.687C507.668 263.701 508.273 266.929 508.226 270.181C508.178 273.432 507.479 276.641 506.169 279.618Z" fill="url(#paint0_linear_203_31)"/>
<defs>
<linearGradient id="paint0_linear_203_31" x1="684.5" y1="22.5" x2="28.5" y2="750" gradientUnits="userSpaceOnUse">
<stop stop-color="#F2ED66"/>
<stop offset="0.526042" stop-color="#ED6A4D"/>
<stop offset="1" stop-color="#9D1CBD"/>
</linearGradient>
</defs>
</svg>
