<svg viewBox="0 0 286 317" fill="none" xmlns="http://www.w3.org/2000/svg">
<path fill-rule="evenodd" clip-rule="evenodd" d="M43.72 136.038C62.4589 128.232 83.5549 128.419 102.154 136.557L107.524 138.906L102.387 150.743L97.0164 148.394C81.6214 141.658 64.1592 141.503 48.6481 147.965L41.8711 150.788L36.9431 138.862L43.72 136.038Z" fill="black"/>
<path fill-rule="evenodd" clip-rule="evenodd" d="M177.101 135.841C195.84 128.035 216.936 128.222 235.535 136.359L240.905 138.709L235.768 150.546L230.398 148.196C215.003 141.461 197.541 141.306 182.029 147.767L175.253 150.59L170.325 138.664L177.101 135.841Z" fill="black"/>
<path d="M138.926 179.979C188.757 179.979 230.193 182.928 230.193 182.928C230.193 182.928 223.108 271.079 138.926 271.079C54.745 271.079 47.6593 182.928 47.6593 182.928C47.6593 182.928 89.0953 179.979 138.926 179.979Z" fill="white"/>
<path fill-rule="evenodd" clip-rule="evenodd" d="M74.2333 176.616C90.8705 175.877 113.761 175.137 138.767 175.137C163.772 175.137 186.663 175.877 203.3 176.616C211.62 176.986 218.381 177.356 223.065 177.634C225.407 177.773 227.23 177.888 228.47 177.97C229.09 178.01 229.564 178.042 229.884 178.064C230.044 178.075 230.166 178.083 230.248 178.089L230.374 178.098C230.374 178.098 230.375 178.098 230.034 182.928C234.84 183.317 234.84 183.32 234.84 183.323L234.839 183.33L234.838 183.352C234.836 183.368 234.834 183.39 234.832 183.418C234.827 183.472 234.82 183.548 234.811 183.644C234.793 183.837 234.765 184.11 234.726 184.46C234.647 185.159 234.523 186.164 234.334 187.43C233.958 189.961 233.327 193.546 232.3 197.834C230.25 206.391 226.598 217.856 220.176 229.37C207.227 252.582 182.974 275.921 138.767 275.921C94.5599 275.921 70.3068 252.582 57.3579 229.37C50.935 217.856 47.2833 206.391 45.2335 197.834C44.2063 193.546 43.5751 189.961 43.199 187.43C43.0109 186.164 42.8863 185.159 42.8078 184.46C42.7685 184.11 42.7408 183.837 42.7224 183.644C42.7132 183.548 42.7063 183.472 42.7015 183.418C42.6991 183.39 42.6972 183.368 42.6958 183.352L42.694 183.33L42.6934 183.323C42.6932 183.32 42.693 183.317 47.4997 182.928C47.1587 178.098 47.1591 178.098 47.1596 178.098L47.2856 178.089C47.3677 178.083 47.4893 178.075 47.6493 178.064C47.9695 178.042 48.4435 178.01 49.0634 177.97C50.3031 177.888 52.1263 177.773 54.4684 177.634C59.1525 177.356 65.913 176.986 74.2333 176.616ZM47.4997 182.928L47.1587 178.098L42.3012 178.444L42.693 183.317L47.4997 182.928ZM52.9609 187.426C53.3142 189.581 53.8408 192.355 54.6108 195.569C56.5202 203.541 59.9013 214.113 65.7725 224.637C77.4118 245.502 98.7923 266.238 138.767 266.238C178.741 266.238 200.122 245.502 211.761 224.637C217.632 214.113 221.013 203.541 222.923 195.569C223.693 192.355 224.219 189.581 224.573 187.426C223.936 187.387 223.243 187.345 222.497 187.301C217.854 187.026 211.141 186.658 202.874 186.291C186.335 185.556 163.592 184.821 138.767 184.821C113.941 184.821 91.1984 185.556 74.6598 186.291C66.3922 186.658 59.6793 187.026 55.0369 187.301C54.2907 187.345 53.5979 187.387 52.9609 187.426ZM230.034 182.928L234.84 183.317L235.232 178.444L230.375 178.098L230.034 182.928Z" fill="black"/>
<path d="M89.4529 221.943H188.4" stroke="black" stroke-width="9.59088"/>
<path d="M24.1142 171.626C24.1142 173.29 23.2162 174.9 21.5615 176.139C19.9064 177.378 17.5587 178.184 14.9086 178.184C12.2586 178.184 9.91084 177.378 8.25579 176.139C6.60107 174.9 5.70302 173.29 5.70302 171.626C5.70302 169.961 6.60107 168.351 8.25579 167.112C9.91084 165.873 12.2586 165.067 14.9086 165.067C17.5587 165.067 19.9064 165.873 21.5615 167.112C23.2162 168.351 24.1142 169.961 24.1142 171.626Z" fill="#EE3939" stroke="black" stroke-width="2.66413"/>
<path d="M278.05 171.626C278.05 173.29 277.152 174.9 275.497 176.139C273.842 177.378 271.495 178.184 268.845 178.184C266.194 178.184 263.847 177.378 262.192 176.139C260.537 174.9 259.639 173.29 259.639 171.626C259.639 169.961 260.537 168.351 262.192 167.112C263.847 165.873 266.194 165.067 268.845 165.067C271.495 165.067 273.842 165.873 275.497 167.112C277.152 168.351 278.05 169.961 278.05 171.626Z" fill="#EE3939" stroke="black" stroke-width="2.66413"/>
<path d="M112.681 292.835C113.241 289.097 114.129 284.634 115.091 283.886C116.695 282.64 148.778 272.489 173.732 283.886C174.829 285.779 177.224 289.75 177.475 293.681C177.788 294.958 177.475 296.58 177.475 297.954C177.475 307.199 169.974 314.694 160.72 314.694C158.365 314.694 156.124 314.208 154.091 313.332C151.555 314.874 148.577 315.762 145.392 315.762C141.951 315.762 138.753 314.726 136.093 312.949C133.847 314.066 131.316 314.694 128.637 314.694C119.384 314.694 111.883 307.199 111.883 297.954C111.883 296.169 112.163 294.449 112.681 292.835Z" fill="black" stroke="black" stroke-width="0.532827"/>
<path d="M29.6941 108.727L23.9831 148.227C-7.42709 138.46 0.42546 117.824 8.27801 108.727C7.08823 99.1516 -3.57219 82.8728 3.28094 71.3819C10.1341 59.8909 38.4985 55.8212 50.3963 60.6091C43.9714 49.1182 45.3992 38.3454 64.6736 26.8545C79.4368 18.0531 97.1229 19.5218 103.823 29.1175C97.0825 16.4159 121.688 0.999908 159.618 0.999908C191.028 0.999908 194.598 30.206 192.456 44.8091C197.691 36.9091 215.014 23.9818 242.427 35.4727C269.839 46.9636 266.222 74.7334 260.987 87.1819C268.84 88.6183 284.688 95.6565 285.259 112.318C285.83 128.98 269.316 143.2 260.987 148.227L253.849 108.727C253.849 108.727 203.164 92.2092 143.199 92.2092C83.2342 92.2092 29.6941 108.727 29.6941 108.727Z" fill="black" stroke="black" stroke-width="0.532827"/>
<path d="M247.231 130.966C247.231 153.989 228.549 172.659 205.497 172.659C182.445 172.659 163.764 153.989 163.764 130.966C163.764 125.859 165.752 122.275 168.855 119.574C172.088 116.759 176.65 114.821 181.733 113.546C190.907 111.245 200.618 111.359 204.455 111.404C204.876 111.409 205.226 111.413 205.497 111.413C205.768 111.413 206.119 111.409 206.54 111.404C210.377 111.359 220.087 111.245 229.261 113.546C234.344 114.821 238.906 116.759 242.14 119.574C245.243 122.275 247.231 125.859 247.231 130.966Z" stroke="black" stroke-width="7.54514"/>
<path d="M112.959 130.966C112.959 153.99 94.2778 172.659 71.2258 172.659C48.1738 172.659 29.4921 153.99 29.4921 130.966C29.4921 125.859 31.4805 122.275 34.5835 119.574C37.817 116.759 42.3788 114.821 47.4616 113.546C56.6356 111.245 66.3464 111.359 70.1833 111.404C70.6043 111.409 70.9547 111.413 71.2258 111.413C71.4969 111.413 71.8472 111.409 72.2683 111.404C76.1052 111.359 85.816 111.245 94.99 113.546C100.073 114.821 104.635 116.759 107.868 119.574C110.971 122.275 112.959 125.859 112.959 130.966Z" stroke="black" stroke-width="7.54514"/>
<path d="M112.799 123.407L119.262 121.175C132 116.774 145.846 116.774 158.585 121.175L165.047 123.407" stroke="black" stroke-width="7.54514"/>
</svg>
