<svg viewBox="0 0 750 750" fill="none" xmlns="http://www.w3.org/2000/svg">
<rect width="750" height="750" rx="143" fill="#EEEEEE"/>
<path fill-rule="evenodd" clip-rule="evenodd" d="M143 0C64.0233 0 0 64.0233 0 143V607C0 685.977 64.0233 750 143 750H607C685.977 750 750 685.977 750 607V143C750 64.0233 685.977 0 607 0H143ZM527.876 264.485C544.488 262.494 560.29 258.09 575 251.572L574.965 251.624C563.953 268.094 550.095 282.47 534.042 294.08C534.2 297.604 534.288 301.162 534.288 304.685C534.288 413.132 451.755 538.174 300.782 538.174C256.183 538.224 212.514 525.423 175 501.303C181.502 502.068 188.043 502.45 194.59 502.448C231.547 502.502 267.448 490.124 296.519 467.303C279.394 466.989 262.796 461.328 249.049 451.112C235.301 440.897 225.092 426.637 219.852 410.331C232.154 412.676 244.828 412.194 256.917 408.922C238.341 405.169 221.637 395.104 209.637 380.436C197.638 365.768 191.083 347.401 191.084 328.45V327.393C202.479 333.728 215.223 337.249 228.255 337.663C217.018 330.159 207.808 319.998 201.44 308.081C195.073 296.163 191.745 282.858 191.753 269.347C191.753 254.337 195.805 240.244 202.852 228.089C223.46 253.442 249.169 274.178 278.311 288.952C307.452 303.726 339.374 312.208 372.005 313.846C367.875 296.243 369.672 277.768 377.117 261.291C384.562 244.813 397.239 231.255 413.179 222.72C429.12 214.186 447.432 211.153 465.273 214.092C483.113 217.031 499.485 225.779 511.845 238.976C530.225 235.368 547.85 228.635 563.954 219.069C557.841 238.086 545.017 254.228 527.876 264.485Z" fill="url(#paint0_radial_203_33)"/>
<defs>
<radialGradient id="paint0_radial_203_33" cx="0" cy="0" r="1" gradientUnits="userSpaceOnUse" gradientTransform="translate(375 375) rotate(90) scale(375)">
<stop stop-color="#42A2E2"/>
<stop offset="1" stop-color="#0089E4"/>
</radialGradient>
</defs>
</svg>
