<svg viewBox="0 0 750 750" fill="none" xmlns="http://www.w3.org/2000/svg">
<rect width="750" height="750" rx="143" fill="#EEEEEE"/>
<path fill-rule="evenodd" clip-rule="evenodd" d="M143 0C64.0233 0 0 64.0233 0 143V607C0 685.977 64.0233 750 143 750H607C685.977 750 750 685.977 750 607V143C750 64.0233 685.977 0 607 0H143ZM597.638 233.874C605.25 241.09 610.765 250.233 613.596 260.332V260.312C621.062 298.157 624.554 336.678 624.013 375.249C624.26 413.657 620.765 451.998 613.575 489.728C610.825 499.687 605.346 508.832 597.638 516.187C589.81 523.624 580.217 528.944 569.763 531.645C504.733 538.911 439.318 542.181 373.888 541.437C373.888 541.437 217.909 541.437 178.263 531.145C167.68 528.332 158.055 523.02 150.325 515.666C142.596 508.312 137.034 499.207 134.18 489.228C127.159 451.437 123.763 413.124 124.013 374.77C123.769 336.381 127.173 298.056 134.18 260.312C137.096 250.291 142.68 241.145 150.388 233.728C158.233 226.234 167.808 220.795 178.263 217.895C243.209 210.63 308.541 207.36 373.888 208.103C373.888 208.103 530.638 208.103 569.763 218.416C580.217 221.117 589.81 226.437 597.638 233.874ZM324.055 303.457V446.103L454.471 374.791L324.055 303.457Z" fill="url(#paint0_radial_203_37)"/>
<defs>
<radialGradient id="paint0_radial_203_37" cx="0" cy="0" r="1" gradientUnits="userSpaceOnUse" gradientTransform="translate(375 375) rotate(90) scale(375)">
<stop stop-color="#FF0001"/>
<stop offset="1" stop-color="#E10001"/>
</radialGradient>
</defs>
</svg>
